<svg width="256" height="24" viewBox="0 0 256 24" fill="none" xmlns="http://www.w3.org/2000/svg">
<g id="logo-horizontal">
<path id="Vector" d="M20.5121 11.1945L22.7604 23.5097H17.9067L17.3994 20.7015C15.2075 22.8856 12.8526 23.9936 10.3913 23.9936C7.55426 23.9936 4.96144 22.9302 3.08259 20.9944C1.05342 18.8994 -0.0425738 15.9384 0.00126609 12.6463C0.301883 6.36137 4.41031 0.0254709 12.9215 0.0254709C15.1448 0.0254709 17.4245 0.47758 19.3409 1.29902L19.4787 1.35633L20.1488 5.68639C20.2553 6.38047 20.0111 6.99178 19.5038 7.27832C18.9777 7.57761 18.3013 7.46299 17.7439 6.97267C14.5812 4.20907 11.4122 2.68718 8.81309 2.68718C5.68166 2.68718 3.89049 4.85222 3.89049 8.62192C3.89049 14.4548 7.76719 20.7015 13.5415 20.7015C14.8192 20.7015 16.0341 20.1666 17.0487 19.1478L15.8838 12.831H8.70662V11.2008H20.5121V11.1945ZM37.1149 14.9705L43.4403 23.5097H37.428L32.2424 16.1995C32.0921 16.1995 31.9418 16.2059 31.7915 16.2059H29.9627V23.5033H24.9963V0.47758H31.0524C37.6159 0.47758 41.5364 3.32396 41.5364 8.08703C41.5364 11.0353 39.9332 13.5314 37.1211 14.9769L37.1149 14.9705ZM29.9564 14.5566C30.1756 14.563 30.3948 14.5694 30.6015 14.5694C34.4532 14.5694 36.2506 12.8119 36.2506 9.04219C36.2506 5.60998 34.3843 1.91032 30.2884 1.91032C30.207 1.91032 30.088 1.91032 29.9564 1.91032V14.563V14.5566ZM44.9873 23.5097H49.9537V0.471213H44.9873V23.5161V23.5097ZM68.8925 17.4476C68.4479 17.1356 67.6901 17.0655 66.901 17.8042C63.9512 20.5805 61.446 21.9878 59.4607 21.9878C59.3668 21.9878 59.2728 21.9878 59.1789 21.9878V0.47758H54.2124V23.5161H67.7026L69.3497 19.3898C69.6441 18.6447 69.4625 17.8488 68.8988 17.454L68.8925 17.4476ZM86.1091 17.4476C85.6644 17.1356 84.9066 17.0655 84.1175 17.8042C81.1677 20.5805 78.6626 21.9878 76.6773 21.9878C76.5833 21.9878 76.4894 21.9878 76.3954 21.9878V0.47758H71.429V23.5161H84.9192L86.5663 19.3898C86.8606 18.6447 86.679 17.8488 86.1154 17.454L86.1091 17.4476ZM104.422 17.454C103.971 17.1356 103.207 17.0592 102.411 17.8042C98.735 21.2619 95.923 21.9878 94.207 21.9878C93.9815 21.9878 93.7936 21.9878 93.612 21.9814V15.6837C95.2215 14.2828 97.2069 13.3149 100.639 12.2388C101.509 11.965 101.823 11.29 101.741 10.7424C101.66 10.2139 101.184 9.67896 100.301 9.67896H96.8499L93.612 13.6779V1.91669C96.1547 1.89759 98.7099 3.26028 101.203 5.99841C101.729 6.5715 102.518 6.7307 103.125 6.38684C103.614 6.10666 104.027 5.45078 103.745 4.44468L102.63 0.483948H88.6393V23.5161H103.2L104.848 19.3898C105.148 18.632 104.979 17.8615 104.415 17.4667L104.422 17.454ZM119.252 14.9705L125.578 23.5097H119.565L114.38 16.1995C114.229 16.1995 114.079 16.2059 113.929 16.2059H112.1V23.5033H107.133V0.47758H113.19C119.753 0.47758 123.674 3.32396 123.674 8.08703C123.674 11.0353 122.07 13.5314 119.258 14.9769L119.252 14.9705ZM112.094 14.5566C112.313 14.563 112.532 14.5694 112.739 14.5694C116.59 14.5694 118.388 12.8119 118.388 9.04219C118.388 5.60998 116.521 1.91032 112.426 1.91032C112.344 1.91032 112.225 1.91032 112.094 1.91032V14.563V14.5566ZM130.124 0.433006L127.337 0.483948L126.373 10.4049L127.651 10.7424L127.738 10.5131C128.696 8.03608 129.817 5.84558 131.621 2.95463C132.009 2.33059 132.078 1.69382 131.809 1.20987C131.527 0.706819 130.907 0.420271 130.131 0.433006H130.124ZM141.679 8.7047C138.109 6.52056 135.98 4.48289 135.98 3.24118C135.98 2.62351 136.5 2.22234 137.314 2.22234C139.068 2.22234 142.187 3.97984 145.255 6.69249C145.763 7.13823 146.383 7.24648 146.871 6.97267C147.341 6.71159 147.573 6.14487 147.472 5.50809L146.834 1.37543L146.696 1.31175C144.83 0.464845 142.65 0 140.552 0C138.022 0 136.105 0.662245 134.84 1.974C133.901 2.94826 133.369 4.29822 133.369 5.68639C133.369 8.86389 136.293 11.3537 140.684 14.1236C144.059 16.2568 146.289 17.6641 146.289 19.5681C146.289 20.3003 146.013 20.7843 144.667 20.7843C141.867 20.7843 137.922 18.6702 134.615 15.3972C134.133 14.926 133.494 14.7923 132.986 15.0597C132.492 15.3208 132.247 15.8939 132.354 16.5625L133.03 20.9116L133.118 20.9817C135.623 22.8984 138.623 24 141.347 24C146.264 24 148.462 20.5105 148.462 17.0592C148.462 14.4548 147.328 12.1496 141.692 8.7047H141.679ZM187.479 8.46272C187.479 13.3914 183.121 16.97 177.121 16.97H175.749V23.5224H170.783V0.47758H176.294C186.39 0.47758 187.479 6.05572 187.479 8.45636V8.46272ZM175.749 1.92306V15.2635C176 15.2762 176.25 15.2826 176.501 15.2826C180.334 15.2826 182.194 13.1876 182.194 8.88936C182.194 3.82064 178.361 1.94853 175.749 1.91669V1.92306ZM201.859 14.9833L208.184 23.5224H202.172L196.986 16.2123C196.836 16.2123 196.686 16.2186 196.536 16.2186H194.707V23.5161H189.74V0.47758H195.797C202.36 0.47758 206.281 3.32396 206.281 8.08703C206.281 11.0353 204.677 13.5314 201.865 14.9769L201.859 14.9833ZM194.701 14.5694C194.92 14.5757 195.139 14.5821 195.346 14.5821C199.197 14.5821 200.995 12.8246 200.995 9.05492C200.995 5.62271 199.128 1.92306 195.032 1.92306C194.951 1.92306 194.832 1.92306 194.701 1.92306V14.563V14.5694ZM209.731 23.5224H214.698V0.471213H209.731V23.5161V23.5224ZM237.156 11.5129C237.156 17.3202 233.618 23.5224 223.698 23.5224H218.549V0.47758H224.706C233.893 0.47758 237.156 6.41868 237.156 11.5065V11.5129ZM223.516 21.8159C223.804 21.8286 224.105 21.835 224.386 21.835C231.15 21.835 231.877 15.601 231.877 12.9265C231.877 6.36774 228.589 1.96763 223.698 1.96763C223.635 1.96763 223.572 1.96763 223.51 1.96763V21.8159H223.516ZM255.425 17.4603C254.974 17.1419 254.21 17.0655 253.415 17.8106C249.738 21.2682 246.926 21.9942 245.21 21.9942C244.985 21.9942 244.797 21.9942 244.615 21.9878V15.6901C246.219 14.2892 248.21 13.3213 251.642 12.2452C252.513 11.9713 252.826 11.2964 252.745 10.7487C252.663 10.2202 252.187 9.68533 251.304 9.68533H247.853L244.615 13.6843V1.91669C247.158 1.90395 249.713 3.26028 252.206 5.99841C252.726 6.5715 253.521 6.7307 254.129 6.38684C254.617 6.10666 255.031 5.45078 254.749 4.44468L253.634 0.483948H239.643V23.5161H254.204L255.851 19.3898C256.152 18.632 255.982 17.8615 255.419 17.4667L255.425 17.4603ZM161.257 15.0661H164.745L163.004 11.9968L164.745 8.92757H161.257L159.516 5.85832L157.775 8.92757H154.286L156.027 11.9968L154.286 15.0661H157.775L159.516 18.1353L161.257 15.0661Z" fill="#2D479D"/>
</g>
</svg>
