<svg width="82" height="36" viewBox="0 0 82 36" fill="none" xmlns="http://www.w3.org/2000/svg">
<path d="M13.2504 16.7795V19.2306H24.1728L25.9463 28.7173C24.3988 30.2454 22.56 31.0524 20.6107 31.0524C11.8286 31.0524 5.92525 21.6716 5.92525 12.9112C5.92525 7.24741 8.65333 3.99944 13.4162 3.99944C17.3701 3.99944 22.1983 6.28411 27.0013 10.4399C27.8504 11.1712 28.8753 11.3477 29.6792 10.8989C30.4428 10.4702 30.8196 9.5573 30.6589 8.50827L29.639 2.00224L29.428 1.91146C26.514 0.680863 23.0474 0 19.6661 0C6.71403 0 0.45904 9.51191 0.0018479 18.9532C-0.0634653 23.8958 1.60453 28.3491 4.69435 31.4912C7.55306 34.3962 11.497 36 15.8127 36C19.5556 36 23.1378 34.3407 26.4738 31.0574L27.2425 35.2788H34.6229L31.2065 16.7795H13.2504Z" fill="#2D479D"/>
<path d="M64.9834 0.675865H56.5931V35.2788H64.1494V25.4391H66.2394C75.3732 25.4391 82 20.0679 82 12.6641C82 9.05805 80.342 0.675865 64.9834 0.675865ZM73.9614 13.3097C73.9614 19.7753 71.1278 22.9174 65.2999 22.9174C64.913 22.9174 64.5312 22.9073 64.1544 22.8922V2.83445C68.1335 2.88489 73.9564 5.68903 73.9614 13.3046V13.3097Z" fill="#2D479D"/>
<path d="M46.6757 22.2237H51.725L49.2029 17.7877L51.725 13.3569H46.6757L44.1587 8.92606L41.6366 13.3569H36.5874L39.1095 17.7877L36.5874 22.2237H41.6366L44.1587 26.6545L46.6757 22.2237Z" fill="#2D479D"/>
</svg>
