<svg width="27" height="24" viewBox="0 0 27 24" fill="none" xmlns="http://www.w3.org/2000/svg">
<path d="M9.78642 12.75L12.233 15L16.3107 9.75M22.835 12C22.835 13.1819 22.5818 14.3522 22.09 15.4442C21.5982 16.5361 20.8773 17.5282 19.9686 18.364C19.0598 19.1997 17.981 19.8626 16.7936 20.3149C15.6063 20.7672 14.3337 21 13.0486 21C11.7634 21 10.4908 20.7672 9.30346 20.3149C8.11612 19.8626 7.03727 19.1997 6.12852 18.364C5.21977 17.5282 4.4989 16.5361 4.00709 15.4442C3.51528 14.3522 3.26215 13.1819 3.26215 12C3.26215 9.61305 4.29321 7.32387 6.12852 5.63604C7.96383 3.94821 10.453 3 13.0486 3C15.6441 3 18.1333 3.94821 19.9686 5.63604C21.8039 7.32387 22.835 9.61305 22.835 12Z" stroke="#2A2828" stroke-width="1.5" stroke-linecap="round" stroke-linejoin="round"/>
</svg>
