<svg width="47" height="47" viewBox="0 0 47 47" fill="none" xmlns="http://www.w3.org/2000/svg">
<path d="M32.81 14.01L39.26 7.56" stroke="#2C469C" stroke-width="1.27" stroke-miterlimit="10"/>
<path d="M7.56 39.26L14.01 32.81" stroke="#2C469C" stroke-width="1.27" stroke-miterlimit="10"/>
<path d="M23.41 45.82C35.7867 45.82 45.82 35.7867 45.82 23.41C45.82 11.0333 35.7867 1 23.41 1C11.0333 1 1 11.0333 1 23.41C1 35.7867 11.0333 45.82 23.41 45.82Z" stroke="#2C469C" stroke-width="1.27" stroke-miterlimit="10"/>
<path d="M23.41 33.1V41.07" stroke="#2C469C" stroke-width="1.27" stroke-miterlimit="10"/>
<path d="M21.2601 10.97C22.1201 11.5 22.8501 12.21 23.4101 13.03C23.9701 12.21 24.7001 11.5 25.5601 10.97L26.1201 10.62C26.0101 10.32 25.8701 10.02 25.7001 9.73L23.4001 5.75L21.1001 9.73C20.9301 10.02 20.8001 10.32 20.6801 10.62L21.2401 10.97H21.2601Z" fill="#2C469C"/>
<path d="M26.23 27.93L30.17 25.51V29.23C30.17 31.28 29.1 33.19 27.35 34.27L23.41 36.69V32.97C23.41 30.92 24.48 29.01 26.23 27.93Z" fill="#2C469C"/>
<path d="M20.59 27.93L16.65 25.51V29.23C16.65 31.28 17.72 33.19 19.47 34.27L23.41 36.69V32.97C23.41 30.92 22.34 29.01 20.59 27.93Z" fill="#2C469C"/>
<path d="M26.23 12.05L30.17 9.63V13.35C30.17 15.4 29.1 17.31 27.35 18.39L23.41 20.81V17.09C23.41 15.04 24.48 13.13 26.23 12.05Z" fill="#2C469C"/>
<path d="M20.59 12.05L16.65 9.63V13.35C16.65 15.4 17.72 17.31 19.47 18.39L23.41 20.81V17.09C23.41 15.04 22.34 13.13 20.59 12.05Z" fill="#2C469C"/>
<path d="M26.23 19.99L30.17 17.57V21.29C30.17 23.34 29.1 25.25 27.35 26.33L23.41 28.75V25.03C23.41 22.98 24.48 21.07 26.23 19.99Z" fill="#2C469C"/>
<path d="M20.59 19.99L16.65 17.57V21.29C16.65 23.34 17.72 25.25 19.47 26.33L23.41 28.75V25.03C23.41 22.98 22.34 21.07 20.59 19.99Z" fill="#2C469C"/>
</svg>
